REM DIRINDEX 1\4,1\2\5,1\2\6,1\3\7,1\3\8
REM DIRNAME folder01,folder02,folder03,folder04,folder05,folder06,folder07,folder08
TITLE ""
FILE "053_Day27_Check2_Phrases.mp3" MP3
  TRACK 01 AUDIO
    TITLE "0:"
    INDEX 01 00:00:00
  TRACK 02 AUDIO
    TITLE "4:cjc124_1719"
    INDEX 01 00:00:31
  TRACK 03 AUDIO
    TITLE "0:"
    INDEX 01 00:01:46
  TRACK 04 AUDIO
    TITLE "5:cjc124_1720"
    INDEX 01 00:02:00
  TRACK 05 AUDIO
    TITLE "0:"
    INDEX 01 00:04:21
  TRACK 06 AUDIO
    TITLE "6:cjc124_1721"
    INDEX 01 00:04:44
  TRACK 07 AUDIO
    TITLE "0:"
    INDEX 01 00:06:28
  TRACK 08 AUDIO
    TITLE "5:cjc124_1722"
    INDEX 01 00:06:67
  TRACK 09 AUDIO
    TITLE "0:"
    INDEX 01 00:08:66
  TRACK 10 AUDIO
    TITLE "6:cjc124_1723"
    INDEX 01 00:09:08
  TRACK 11 AUDIO
    TITLE "0:"
    INDEX 01 00:10:53
  TRACK 12 AUDIO
    TITLE "5:cjc124_1724"
    INDEX 01 00:11:17
  TRACK 13 AUDIO
    TITLE "0:"
    INDEX 01 00:12:61
  TRACK 14 AUDIO
    TITLE "6:cjc124_1725"
    INDEX 01 00:13:04
  TRACK 15 AUDIO
    TITLE "0:"
    INDEX 01 00:14:41
  TRACK 16 AUDIO
    TITLE "5:cjc124_1726"
    INDEX 01 00:15:07
  TRACK 17 AUDIO
    TITLE "0:"
    INDEX 01 00:17:04
  TRACK 18 AUDIO
    TITLE "6:cjc124_1727"
    INDEX 01 00:17:25
  TRACK 19 AUDIO
    TITLE "0:"
    INDEX 01 00:18:52
  TRACK 20 AUDIO
    TITLE "5:cjc124_1728"
    INDEX 01 00:19:16
  TRACK 21 AUDIO
    TITLE "0:"
    INDEX 01 00:21:02
  TRACK 22 AUDIO
    TITLE "6:cjc124_1729"
    INDEX 01 00:21:21
  TRACK 23 AUDIO
    TITLE "0:"
    INDEX 01 00:23:34
  TRACK 24 AUDIO
    TITLE "5:cjc124_1730"
    INDEX 01 00:23:73
  TRACK 25 AUDIO
    TITLE "0:"
    INDEX 01 00:25:41
  TRACK 26 AUDIO
    TITLE "6:cjc124_1731"
    INDEX 01 00:25:62
  TRACK 27 AUDIO
    TITLE "0:"
    INDEX 01 00:27:51
  TRACK 28 AUDIO
    TITLE "5:cjc124_1732"
    INDEX 01 00:28:13
  TRACK 29 AUDIO
    TITLE "0:"
    INDEX 01 00:30:55
  TRACK 30 AUDIO
    TITLE "6:cjc124_1733"
    INDEX 01 00:31:00
  TRACK 31 AUDIO
    TITLE "0:"
    INDEX 01 00:33:11
  TRACK 32 AUDIO
    TITLE "5:cjc124_1734"
    INDEX 01 00:33:50
  TRACK 33 AUDIO
    TITLE "0:"
    INDEX 01 00:35:33
  TRACK 34 AUDIO
    TITLE "6:cjc124_1735"
    INDEX 01 00:35:53
  TRACK 35 AUDIO
    TITLE "0:"
    INDEX 01 00:37:48
  TRACK 36 AUDIO
    TITLE "5:cjc124_1736"
    INDEX 01 00:38:12
  TRACK 37 AUDIO
    TITLE "0:"
    INDEX 01 00:40:03
  TRACK 38 AUDIO
    TITLE "6:cjc124_1737"
    INDEX 01 00:40:19
  TRACK 39 AUDIO
    TITLE "0:"
    INDEX 01 00:41:49
  TRACK 40 AUDIO
    TITLE "5:cjc124_1738"
    INDEX 01 00:42:12
  TRACK 41 AUDIO
    TITLE "0:"
    INDEX 01 00:44:32
  TRACK 42 AUDIO
    TITLE "6:cjc124_1739"
    INDEX 01 00:44:52
  TRACK 43 AUDIO
    TITLE "0:"
    INDEX 01 00:46:35
  TRACK 44 AUDIO
    TITLE "5:cjc124_1740"
    INDEX 01 00:46:74
  TRACK 45 AUDIO
    TITLE "0:"
    INDEX 01 00:48:32
  TRACK 46 AUDIO
    TITLE "6:cjc124_1741"
    INDEX 01 00:48:65
  TRACK 47 AUDIO
    TITLE "0:"
    INDEX 01 00:50:29
  TRACK 48 AUDIO
    TITLE "5:cjc124_1742"
    INDEX 01 00:50:68
  TRACK 49 AUDIO
    TITLE "0:"
    INDEX 01 00:52:41
  TRACK 50 AUDIO
    TITLE "6:cjc124_1743"
    INDEX 01 00:52:57
  TRACK 51 AUDIO
    TITLE "0:"
    INDEX 01 00:54:50
  TRACK 52 AUDIO
    TITLE "5:cjc124_1744"
    INDEX 01 00:55:18
  TRACK 53 AUDIO
    TITLE "0:"
    INDEX 01 00:56:55
  TRACK 54 AUDIO
    TITLE "6:cjc124_1745"
    INDEX 01 00:57:03
  TRACK 55 AUDIO
    TITLE "0:"
    INDEX 01 00:58:54
  TRACK 56 AUDIO
    TITLE "5:cjc124_1746"
    INDEX 01 00:59:20
  TRACK 57 AUDIO
    TITLE "0:"
    INDEX 01 01:01:13
  TRACK 58 AUDIO
    TITLE "6:cjc124_1747"
    INDEX 01 01:01:36
  TRACK 59 AUDIO
    TITLE "0:"
    INDEX 01 01:03:27
  TRACK 60 AUDIO
    TITLE "5:cjc124_1748"
    INDEX 01 01:03:63
  TRACK 61 AUDIO
    TITLE "0:"
    INDEX 01 01:05:40
  TRACK 62 AUDIO
    TITLE "6:cjc124_1749"
    INDEX 01 01:05:60
  TRACK 63 AUDIO
    TITLE "0:"
    INDEX 01 01:07:21
  TRACK 64 AUDIO
    TITLE "5:cjc124_1750"
    INDEX 01 01:07:59
  TRACK 65 AUDIO
    TITLE "0:"
    INDEX 01 01:10:10
  TRACK 66 AUDIO
    TITLE "6:cjc124_1751"
    INDEX 01 01:10:30
  TRACK 67 AUDIO
    TITLE "0:"
    INDEX 01 01:13:16
